#!OML:ASF H:\Punching\Project 1\Capture day 1\Session 1\female.ASF
:FULLY-SPECIFIED
:DEGREES
2537
root 0.760514 15.3123 3.91606 -12.1073 -29.2642 8.6127
lowerback 4.80249 0.809182 5.93809
upperback -0.815687 1.22085 -5.97393
thorax -3.30311 0.425502 -9.80573
lowerneck -5.08476 9.72287 14.1915
upperneck 39.4454 15.8737 -10.7735
head 17.5972 7.38425 -4.75869
rclavicle 2.86747e-014 -5.28767e-014
rhumerus 21.0386 33.6442 -69.475
rradius 124.55
rwrist -16.4951
rhand -28.6858 9.41889
rfingers 7.12502
rthumb -2.04825 -20.551
lclavicle 2.86747e-014 -5.28767e-014
lhumerus -3.96338 -16.9543 64.914
lradius 141.848
lwrist -0.200947
lhand -26.8466 5.41649
lfingers 7.12502
lthumb -0.271945 35.3961
rfemur -10.4582 7.85681 21.6498
rtibia 41.0025
rfoot -18.3891 -8.0663
rtoes 16.2009
lfemur -96.8957 10.5516 -28.461
ltibia 135.924
lfoot 37.266 -8.69444
ltoes -8.74122
2538
root 0.770416 15.3168 3.85582 -10.7614 -28.4571 8.28986
lowerback 4.47774 0.853472 5.7771
upperback -1.07431 1.26203 -5.82223
thorax -3.38831 0.438634 -9.54053
lowerneck -5.53899 9.52623 13.9099
upperneck 39.3087 15.5371 -10.6987
head 17.5113 7.20176 -4.71306
rclavicle 6.60959e-015 2.50469e-014
rhumerus 21.1531 33.0974 -69.043
rradius 124.647
rwrist -16.6032
rhand -28.7194 9.45878
rfingers 7.12502
rthumb -2.08071 -20.5108
lclavicle 6.60959e-015 2.50469e-014
lhumerus -3.78631 -17.2063 65.0046
lradius 141.773
lwrist -0.160207
lhand -26.7464 5.50386
lfingers 7.12502
lthumb -0.175168 35.4835
rfemur -12.02 7.59546 21.7037
rtibia 41.2367
rfoot -18.2424 -8.56857
rtoes 16.2732
lfemur -95.3909 9.87848 -28.3409
ltibia 135.936
lfoot 37.1007 -8.9308
ltoes -8.46632
2539
root 0.778425 15.3204 3.79519 -9.4185 -27.6204 7.95327
lowerback 4.14181 0.88755 5.6265
upperback -1.32715 1.29057 -5.66479
thorax -3.46354 0.446503 -9.27475
lowerneck -6.00836 9.33027 13.617
upperneck 39.1794 15.1976 -10.6032
head 17.432 7.01819 -4.65619
rclavicle -4.02539e-015 7.55382e-014
rhumerus 21.2616 32.532 -68.6166
rradius 124.744
rwrist -16.7091
rhand -28.7666 9.52534
rfingers 7.12502
rthumb -2.12631 -20.4438
lclavicle -4.02539e-015 7.55382e-014
lhumerus -3.56457 -17.4602 65.0787
lradius 141.692
lwrist -0.0646153
lhand -26.6656 5.59792
lfingers 7.12502
lthumb -0.0970902 35.5776
rfemur -13.5627 7.35205 21.7939
rtibia 41.4529
rfoot -18.0925 -9.11468
rtoes 16.3614
lfemur -93.7736 9.16911 -28.1277
ltibia 135.727
lfoot 36.925 -9.1044
ltoes -8.09898
2540
root 0.784712 15.3229 3.73479 -8.10521 -26.7508 7.62666
lowerback 3.80737 0.906181 5.47347
upperback -1.57504 1.29884 -5.5074
thorax -3.53831 0.444948 -9.00726
lowerneck -6.48466 9.13615 13.3122
upperneck 39.0642 14.8584 -10.4856
head 17.3617 6.83518 -4.58761
rclavicle -6.63444e-014 1.47101e-014
rhumerus 21.355 31.9633 -68.2076
rradius 124.839
rwrist -16.8026
rhand -28.8077 9.58605
rfingers 7.12502
rthumb -2.16602 -20.3827
lclavicle -6.63444e-014 1.47101e-014
lhumerus -3.31759 -17.7099 65.1347
lradius 141.608
lwrist 0.0698667
lhand -26.6119 5.68164
lfingers 7.12502
lthumb -0.0452442 35.6614
rfemur -15.072 7.11718 21.8936
rtibia 41.6592
rfoot -17.9503 -9.69087
rtoes 16.4592
lfemur -92.0215 8.42367 -27.8695
ltibia 135.312
lfoot 36.6765 -9.20808
ltoes -7.74811
2541
root 0.789595 15.3246 3.67498 -6.83701 -25.8439 7.32613
lowerback 3.4831 0.908765 5.31291
upperback -1.81734 1.28583 -5.35698
thorax -3.61672 0.433334 -8.74301
lowerneck -6.95496 8.94349 13.0058
upperneck 38.9543 14.5201 -10.3531
head 17.2944 6.65438 -4.51254
rclavicle -2.90723e-014 3.26007e-014
rhumerus 21.4261 31.3905 -67.8183
rradius 124.932
rwrist -16.8751
rhand -28.8555 9.65789
rfingers 7.12502
rthumb -2.21214 -20.3104
lclavicle -2.90723e-014 3.26007e-014
lhumerus -3.04836 -17.9559 65.1731
lradius 141.522
lwrist 0.230374
lhand -26.5823 5.71335
lfingers 7.12502
lthumb -0.0166452 35.6931
rfemur -16.5428 6.87639 21.9822
rtibia 41.8668
rfoot -17.8193 -10.2833
rtoes 16.5231
lfemur -90.13 7.63829 -27.6048
ltibia 134.701
lfoot 36.3272 -9.21329
ltoes -7.4899
2542
root 0.793523 15.3254 3.61609 -5.63097 -24.9015 7.07435
lowerback 3.17958 0.892673 5.12981
upperback -2.05619 1.2474 -5.21795
thorax -3.70765 0.4095 -8.47818
lowerneck -7.40967 8.75498 12.708
upperneck 38.8478 14.1899 -10.2174
head 17.2308 6.4794 -4.43722
rclavicle -4.24405e-014 5.1684e-015
rhumerus 21.4728 30.8278 -67.4536
rradius 125.025
rwrist -16.9258
rhand -28.9013 9.72762
rfingers 7.12502
rthumb -2.25637 -20.2402
lclavicle -4.24405e-014 5.1684e-015
lhumerus -2.7703 -18.1869 65.1923
lradius 141.437
lwrist 0.375843
lhand -26.5476 5.73217
lfingers 7.12502
lthumb 0.0168765 35.7119
rfemur -17.9755 6.61615 22.0341
rtibia 42.0912
rfoot -17.708 -10.8776
rtoes 16.5596
lfemur -88.0912 6.82351 -27.3738
ltibia 133.901
lfoot 35.8607 -9.09307
ltoes -7.32504
2543
root 0.796819 15.3251 3.55827 -4.49171 -23.9257 6.88213
lowerback 2.89292 0.862358 4.92348
upperback -2.28698 1.18934 -5.09704
thorax -3.80251 0.376883 -8.21979
lowerneck -7.84974 8.56678 12.4192
upperneck 38.7379 13.8607 -10.0784
head 17.1657 6.30733 -4.36268
rclavicle 1.09332e-014 -4.45278e-014
rhumerus 21.4998 30.2654 -67.1054
rradius 125.119
rwrist -16.9654
rhand -28.9433 9.77489
rfingers 7.12502
rthumb -2.29694 -20.1925
lclavicle 1.09332e-014 -4.45278e-014
lhumerus -2.46389 -18.4052 65.1852
lradius 141.349
lwrist 0.488053
lhand -26.4944 5.74575
lfingers 7.12502
lthumb 0.068244 35.7255
rfemur -19.3756 6.32684 22.0371
rtibia 42.347
rfoot -17.6229 -11.4646
rtoes 16.5652
lfemur -85.9143 5.99436 -27.2014
ltibia 132.923
lfoot 35.2836 -8.85105
ltoes -7.30833
